<svg width="55" height="56" viewBox="0 0 55 56" fill="none" xmlns="http://www.w3.org/2000/svg">
<circle cx="27.4956" cy="27.9368" r="27.2582" fill="#FF7931"/>
<g clip-path="url(#clip0)">
<path d="M34.7313 23.9145C32.6733 23.9145 30.9991 22.2599 30.9991 20.2262C30.9991 18.1924 32.6734 16.5378 34.7313 16.5378C36.7892 16.5378 38.4634 18.1924 38.4634 20.2262C38.4634 22.2599 36.7893 23.9145 34.7313 23.9145ZM34.7313 18.891C33.965 18.891 33.3416 19.49 33.3416 20.2262C33.3416 20.9624 33.965 21.5613 34.7313 21.5613C35.4975 21.5613 36.1209 20.9624 36.1209 20.2262C36.1209 19.49 35.4975 18.891 34.7313 18.891Z" fill="white"/>
<path d="M40.6968 34.3795C40.6963 34.3795 40.6958 34.3795 40.6954 34.3795H16.2768C15.8385 34.3795 15.4369 34.1337 15.2359 33.7425C15.035 33.3512 15.0682 32.8799 15.3223 32.5211L23.6015 20.8263C23.8194 20.5185 24.1711 20.3345 24.5471 20.3316C24.9206 20.3287 25.2776 20.5073 25.5001 20.8117L31.3238 28.7784L34.7058 25.4816C34.9467 25.2467 35.2763 25.1269 35.6111 25.1528C35.9458 25.1786 36.2535 25.3475 36.4559 25.6166L41.5994 32.4531C41.7673 32.6567 41.8681 32.918 41.8681 33.2031C41.8681 33.8528 41.3436 34.3795 40.6968 34.3795ZM18.547 32.0265H38.3421L35.3861 28.0975L31.9909 31.4073C31.748 31.6441 31.4148 31.7638 31.0775 31.7354C30.7401 31.707 30.4315 31.5334 30.2311 31.2593L24.5711 23.5168L18.547 32.0265Z" fill="white"/>
</g>
<defs>
<clipPath id="clip0">
<rect x="15.1055" y="16.5378" width="26.7626" height="17.8417" fill="white"/>
</clipPath>
</defs>
</svg>
